<?xml version="1.0" standalone="no"?>
<!DOCTYPE svg PUBLIC "-//W3C//DTD SVG 1.1//EN" "http://www.w3.org/Graphics/SVG/1.1/DTD/svg11.dtd">
<svg xmlns="http://www.w3.org/2000/svg" xmlns:xlink="http://www.w3.org/1999/xlink" id="katman_1" viewBox="0 0 1032 638" width="1032" height="638"><defs><style>.cls-1{fill:url(#Adsız_degrade_152);}.cls-2{fill:#353542;}.cls-3{fill:url(#Adsız_degrade_18);}.cls-4{fill:#00000c;}.cls-5{fill:url(#Adsız_degrade_115);}.cls-6{fill:url(#Adsız_degrade_44-2);}.cls-7{fill:url(#Adsız_degrade_91-5);}.cls-8{fill:#fff;}.cls-9{fill:url(#Adsız_degrade_97);}.cls-10{fill:url(#Adsız_degrade_44-4);}.cls-11{fill:#44506c;}.cls-12{fill:url(#Adsız_degrade_159);}.cls-13{fill:url(#Adsız_degrade_97-3);}.cls-14{fill:url(#Adsız_degrade_91-8);}.cls-15{fill:url(#Adsız_degrade_163);}.cls-16{fill:url(#Adsız_degrade_44-6);}.cls-17{fill:url(#Adsız_degrade_194);}.cls-18{fill:url(#Adsız_degrade_12);}.cls-19{fill:#2d2d3b;}.cls-20{fill:url(#Adsız_degrade_91-3);}.cls-21{fill:url(#Adsız_degrade_91);}.cls-22{fill:url(#Adsız_degrade_105);}.cls-23{fill:url(#Adsız_degrade_186);}.cls-24{fill:url(#Adsız_degrade_75);}.cls-25{fill:url(#Adsız_degrade_44-5);}.cls-26{fill:#2a2c3c;}.cls-27{fill:url(#Adsız_degrade_91-6);}.cls-28{fill:url(#Adsız_degrade_44-3);}.cls-29{fill:url(#Adsız_degrade_91-2);}.cls-30{fill:url(#Adsız_degrade_91-4);}.cls-31{fill:url(#Adsız_degrade_91-7);}.cls-32{fill:#b9b9b9;}.cls-33{fill:url(#Adsız_degrade_44);}.cls-34{fill:url(#Adsız_degrade_156);}.cls-35{fill:url(#Adsız_degrade_130);}.cls-36{fill:#b2c1cf;}.cls-37{fill:url(#Adsız_degrade_97-2);}.cls-38{fill:#615f68;}</style><linearGradient id="Adsız_degrade_163" x1="376.61" y1="340.45" x2="933.93" y2="340.45" gradientUnits="userSpaceOnUse"><stop offset="0" stop-color="#449afc"/><stop offset=".27" stop-color="#48b0fc"/><stop offset=".83" stop-color="#55eafe"/><stop offset="1" stop-color="#5afdff"/></linearGradient><linearGradient id="Adsız_degrade_105" x1="148.19" y1="137.99" x2="487.83" y2="316.93" gradientUnits="userSpaceOnUse"><stop offset="0" stop-color="#acb5be"/><stop offset="1" stop-color="#fefefe"/></linearGradient><linearGradient id="Adsız_degrade_130" x1="164.69" y1="255.17" x2="539.13" y2="375.49" gradientUnits="userSpaceOnUse"><stop offset="0" stop-color="#5ecdfe"/><stop offset=".26" stop-color="#97f3fe"/><stop offset=".56" stop-color="#99adb7"/></linearGradient><linearGradient id="Adsız_degrade_97" x1="301.62" y1="386.06" x2="592.14" y2="386.06" gradientUnits="userSpaceOnUse"><stop offset="0" stop-color="#54aafe"/><stop offset=".25" stop-color="#6dcefc"/><stop offset=".54" stop-color="#619ff8"/><stop offset=".77" stop-color="#324bdb"/></linearGradient><linearGradient id="Adsız_degrade_97-2" x1="592.14" y1="402.59" x2="601.6" y2="402.59" xlink:href="#Adsız_degrade_97"/><linearGradient id="Adsız_degrade_97-3" x1="620.49" y1="409.65" x2="625.97" y2="409.65" xlink:href="#Adsız_degrade_97"/><linearGradient id="Adsız_degrade_91" x1="547.04" y1="419.4" x2="552.5" y2="419.4" gradientUnits="userSpaceOnUse"><stop offset="0" stop-color="#2e4aee"/><stop offset=".31" stop-color="#313be4"/><stop offset=".74" stop-color="#272ec3"/><stop offset="1" stop-color="#2735b9"/></linearGradient><linearGradient id="Adsız_degrade_91-2" x1="568.13" y1="417.57" x2="577.73" y2="417.57" xlink:href="#Adsız_degrade_91"/><linearGradient id="Adsız_degrade_91-3" x1="577.74" y1="416.52" x2="588.75" y2="416.52" xlink:href="#Adsız_degrade_91"/><linearGradient id="Adsız_degrade_91-4" x1="588.76" y1="415.57" x2="594.8" y2="415.57" xlink:href="#Adsız_degrade_91"/><linearGradient id="Adsız_degrade_91-5" x1="607.09" y1="412.77" x2="617.66" y2="412.77" xlink:href="#Adsız_degrade_91"/><linearGradient id="Adsız_degrade_91-6" x1="617.66" y1="411.59" x2="622.21" y2="411.59" xlink:href="#Adsız_degrade_91"/><linearGradient id="Adsız_degrade_91-7" x1="622.21" y1="410.87" x2="625.97" y2="410.87" xlink:href="#Adsız_degrade_91"/><linearGradient id="Adsız_degrade_75" x1="795.42" y1="419.09" x2="640.26" y2="528.13" gradientUnits="userSpaceOnUse"><stop offset="0" stop-color="#32267c"/><stop offset=".25" stop-color="#4e4ece"/><stop offset=".8" stop-color="#4c82f7"/><stop offset="1" stop-color="#5b87e4"/></linearGradient><linearGradient id="Adsız_degrade_18" x1="543.95" y1="200.6" x2="698.45" y2="200.6" gradientUnits="userSpaceOnUse"><stop offset=".15" stop-color="#4b5666"/><stop offset=".25" stop-color="#515b6b"/><stop offset=".38" stop-color="#626c79"/><stop offset=".53" stop-color="#7f8692"/><stop offset=".7" stop-color="#a6acb4"/><stop offset=".88" stop-color="#d9dbdf"/><stop offset="1" stop-color="#fff"/></linearGradient><linearGradient id="Adsız_degrade_194" x1="546.87" y1="245.1" x2="652.42" y2="305.95" gradientUnits="userSpaceOnUse"><stop offset="0" stop-color="#416fd4"/><stop offset=".23" stop-color="#5585dd"/><stop offset=".32" stop-color="#5e8fe2"/><stop offset="1" stop-color="#6096e5"/></linearGradient><linearGradient id="Adsız_degrade_186" x1="528.07" y1="272.61" x2="648.9" y2="272.61" gradientUnits="userSpaceOnUse"><stop offset="0" stop-color="#2b5dbf"/><stop offset=".33" stop-color="#2652a8"/><stop offset=".34" stop-color="#2652a8"/><stop offset=".73" stop-color="#233e7c"/><stop offset="1" stop-color="#31579f"/></linearGradient><linearGradient id="Adsız_degrade_44" x1="83.23" y1="444.96" x2="669.98" y2="444.96" gradientUnits="userSpaceOnUse"><stop offset="0" stop-color="#425b72"/><stop offset=".15" stop-color="#83feff"/><stop offset=".19" stop-color="#7ef7fc"/><stop offset=".25" stop-color="#72e6f6"/><stop offset=".31" stop-color="#5dc9eb"/><stop offset=".38" stop-color="#41a2dd"/><stop offset=".39" stop-color="#3b9ada"/><stop offset=".48" stop-color="#3b86cd"/><stop offset=".59" stop-color="#3b65b9"/><stop offset=".69" stop-color="#384c80"/><stop offset=".78" stop-color="#363245"/></linearGradient><linearGradient id="Adsız_degrade_44-2" x1="153.54" y1="526.66" x2="625.97" y2="526.66" xlink:href="#Adsız_degrade_44"/><linearGradient id="Adsız_degrade_44-3" x1="104.65" y1="483.92" x2="543.08" y2="483.92" xlink:href="#Adsız_degrade_44"/><linearGradient id="Adsız_degrade_44-4" x1="55.87" y1="565.14" x2="538.79" y2="565.14" xlink:href="#Adsız_degrade_44"/><linearGradient id="Adsız_degrade_44-5" x1="72.22" y1="592.29" x2="482.52" y2="592.29" xlink:href="#Adsız_degrade_44"/><linearGradient id="Adsız_degrade_44-6" x1="53.35" y1="469.21" x2="743.69" y2="469.21" xlink:href="#Adsız_degrade_44"/><linearGradient id="Adsız_degrade_115" x1="233.62" y1="300.46" x2="601.17" y2="392.95" gradientUnits="userSpaceOnUse"><stop offset="0" stop-color="#3966f6"/><stop offset=".59" stop-color="#223885"/><stop offset=".8" stop-color="#202030"/><stop offset="1" stop-color="#2a2932"/></linearGradient><linearGradient id="Adsız_degrade_91-8" x1="333.26" y1="404.29" x2="625.97" y2="404.29" xlink:href="#Adsız_degrade_91"/><linearGradient id="Adsız_degrade_159" x1="914.41" y1="324.53" x2="977.21" y2="359.29" gradientUnits="userSpaceOnUse"><stop offset="0" stop-color="#fba00c"/><stop offset=".22" stop-color="#fb8909"/><stop offset=".68" stop-color="#fb4f04"/><stop offset="1" stop-color="#fc2400"/></linearGradient><linearGradient id="Adsız_degrade_156" x1="883.63" y1="354.69" x2="967.17" y2="362.28" gradientUnits="userSpaceOnUse"><stop offset="0" stop-color="#fe2408"/><stop offset=".41" stop-color="#fc3a04"/><stop offset=".84" stop-color="#fb5700"/><stop offset="1" stop-color="#fc2400"/></linearGradient><linearGradient id="Adsız_degrade_152" x1="863.57" y1="363.3" x2="979.35" y2="363.3" gradientUnits="userSpaceOnUse"><stop offset="0" stop-color="#ea171e"/><stop offset=".38" stop-color="#e10407"/><stop offset=".47" stop-color="#df0002"/><stop offset="1" stop-color="#f8241f"/></linearGradient><linearGradient id="Adsız_degrade_12" x1="649.66" y1="313.61" x2="897.47" y2="313.61" gradientUnits="userSpaceOnUse"><stop offset=".59" stop-color="#656064"/><stop offset=".62" stop-color="#6a6669"/><stop offset=".66" stop-color="#7b777a"/><stop offset=".7" stop-color="#979496"/><stop offset=".75" stop-color="#bdbbbd"/><stop offset=".8" stop-color="#eee"/><stop offset=".82" stop-color="#fff"/><stop offset=".83" stop-color="#fdebe8"/><stop offset=".86" stop-color="#f9baae"/><stop offset=".89" stop-color="#f46c51"/><stop offset=".92" stop-color="#f0330e"/></linearGradient></defs><circle class="cls-15" cx="655.27" cy="340.45" r="278.66"/><path d="M930.8,294.06s-58.13-67.69-220.69-2.49c-5.32,2.13-14.61,5.15-24.41,8.2l-1.83.55c-4.79,1.49-9.65,2.94-14.19,4.28l-2.58.77c-10.71,3.15-19,5.5-19,5.5-31.31,8.73-45.69-3.6-45.69-3.6l-50.25-29.82-1.92-1.13-.02-.02C433.57,205.39,308.73,114.91,186.96,18.89c0,0-20.79,76.59,84.09,162.6l-133.25-67.24c-.17,1.66-.02,3.9.32,6.39,1.36,9.97,4.96,19.51,10.29,28.05l5.75,9.24.02.02c10.2,16.44,28.67,39.19,61.79,69.8,31.67,29.29,63.03,42.96,77.43,48.16l-127.44-42.71c-4.77-1.53-.11,7.99,1.81,12.61,8.78,21.15,34.51,66.86,100.24,96.04,10.24,4.54,43.15,12.18,43.15,12.18l-36.21,7.18c-2.58.51-3.37,3.86-1.26,5.43,14.25,10.71,31.61,22.22,52.16,33.01,22.64,11.91,43.75,20.11,61.75,25.88-27.3,3.68-47.98,6.16-78.11,9.24H92.27c-12.03,0-21.82,9.79-21.82,21.81s9.79,21.82,21.82,21.82h.31c-.45,1.74-.71,3.56-.71,5.44s.26,3.7.72,5.44h-5.63s-24.19,0-24.19,0c-11.34,0-21.05,8.66-22.1,19.71-.59,6.12,1.44,12.24,5.57,16.77,4.13,4.54,10.01,7.15,16.15,7.15h79.08c-.44,1.72-.7,3.52-.7,5.38,0,1.75.23,3.44.62,5.07l-51.9-.05h-24.57c-12.03,0-21.82,9.79-21.82,21.82,0,10.44,7.37,19.17,17.17,21.31-.52,1.86-.82,3.82-.82,5.84,0,12.03,9.79,21.82,21.82,21.82h259.24c1.84-.08,5.2-.14,9.7-.21,17.29-.3,49.46-.84,78.36-3.26,34.67-2.9,53.02-7.21,61.32-15.17,2.44-.8,4.95-1.39,7.51-1.67,27.52-3.06,153.31-19.98,235.23-80.51,92.42-68.29,74.17-106.46,160.2-132.19,86.03-25.73,83.18,29.33,83.18,29.33,0,0,55.96-88.12-45.2-116.36ZM872.5,324.9c-1.3,8.05-9.76,14.08-17.38,15.44-6.45,1.15-12.74-1.06-16.02-2.32-13.74-5.28-21.47-21.28-23.94-24.96l24.2-1.79s9.44,30.16,33.14,9.22c.19,1.11.3,2.64,0,4.41Z"/><path class="cls-22" d="M146.62,127.94s270.87,139.31,396.3,203.25c-123.23-32.98-313.08-134.63-371.05-166.55h-.01c-10.53-11.8-19.1-24.04-25.24-36.7Z"/><path class="cls-26" d="M171.88,164.64c.09.11.18.22.28.32-.1-.11-.19-.22-.29-.32h.01Z"/><path class="cls-35" d="M188.93,253.13s219.85,69.46,353.34,107.1c-132.8-16.62-263.98-53.37-321.01-70.62-13.5-10.86-24.53-22.97-32.33-36.48Z"/><path class="cls-9" d="M301.62,367.78s190.32,11.81,290.52,33.72c-73.46,9.12-202.31-6.1-258.84-13.75-11.3-5.7-21.93-12.32-31.68-19.97Z"/><path class="cls-37" d="M592.14,401.51c3.26.7,6.4,1.43,9.46,2.16-3.05-.72-6.21-1.45-9.46-2.16Z"/><path class="cls-13" d="M625.97,410.53h-.02c-1.75-.6-3.57-1.18-5.46-1.76,1.9.57,3.73,1.17,5.49,1.76Z"/><path class="cls-21" d="M547.04,419.58c1.84-.11,3.66-.22,5.45-.35-1.79.12-3.61.24-5.45.35Z"/><path class="cls-29" d="M568.13,418.03c3.31-.29,6.5-.6,9.6-.91-3.08.31-6.29.62-9.6.91Z"/><path class="cls-20" d="M577.74,417.12c3.85-.39,7.54-.79,11.01-1.19-3.47.41-7.15.8-11.01,1.19Z"/><path class="cls-30" d="M588.76,415.93c2.09-.25,4.1-.49,6.04-.72-1.94.25-3.95.49-6.04.72Z"/><path class="cls-7" d="M607.09,413.57c4.17-.6,7.71-1.15,10.57-1.6-2.86.47-6.41,1.02-10.57,1.6Z"/><path class="cls-27" d="M617.66,411.97c1.8-.29,3.31-.55,4.54-.76-1.23.22-2.75.48-4.54.76Z"/><path class="cls-31" d="M625.97,410.54s-1.31.25-3.77.67c2.26-.4,3.55-.64,3.74-.68t.02.01Z"/><path class="cls-24" d="M594.6,533.46s123.05-25.37,208.89-123.05c0,0-61.31,123.84-208.89,123.05Z"/><path d="M667.11,305.35c-10.71,3.15-19,5.5-19,5.5-31.31,8.73-45.69-3.6-45.69-3.6l-50.25-29.82-.06.04c-.62-.34-1.24-.72-1.85-1.17l-.02-.02c-15.61-11.2-34.36-55.76-34.36-55.76,7.63,3.06,41.51,17.34,75.1,37.34,2.17,1.47,4.41,2.92,6.65,4.3l69.48,43.2Z"/><path d="M710.12,291.56c.72-.24-171.06-194.52-171.45-207.19,0,0-11.29,79.5,68.6,144.7l79.44,71.26,23.41-8.77Z"/><path class="cls-8" d="M912.66,318.37c7.39,1.07,51.29,8.58,66.26,37.62.12.84.22,1.69.31,2.56-4.44-47.66-63.37-53.37-63.37-53.37-.03,4.61-1.06,8.75-3.2,13.2.07-.14,0,0,0,0Z"/><path class="cls-38" d="M672.54,345.42s46.21,0,76.36-7.91c30.15-7.91,48.19-9.64,57.58,1.48s43,15.07,43,15.07c0,0-14.83.74-54.61,30.89,0,0-19.52,17.54-37.56,5.19,0,0,25.21-12.36,28.42-18.78,0,0-32.12,14.09-56.34,3.46l-56.84-29.41Z"/><path class="cls-8" d="M849.47,354.07s-3.41.17-11.31,3.66c-20.19-.23-37.34-8.58-51.52-15.42-16.15-7.8-54.25,3.62-66.5,5.01-11.29,1.28-42.24-1.47-46.97-1.9,5.58-.04,47.63-.53,75.74-7.9,30.14-7.92,48.18-9.65,57.57,1.47,9.39,11.12,42.98,15.08,42.98,15.08Z"/><path class="cls-8" d="M850.87,308.4s-7.8-.08-1.84,6.16c5.66,5.93,8.22,4.99,8.22,4.99,0,0,7.53-2.26,3.46-6.32-4.06-4.06-8.72-4.9-9.84-4.83Z"/><path class="cls-3" d="M698.45,295.71l-4.45,1.45c-10.73-8.97-20.69-17.66-29.94-26.05-35.48-36.47-92.88-112.61-110.75-136.58-.01-.01-.02-.01-.02-.02-9.02-19.99-9.35-30.45-9.35-30.45,2.73,14.36,154.5,191.65,154.5,191.65Z"/><path class="cls-8" d="M866.56,282.02c-33.94-8.32-62.81-1.16-77.22,3.59-46.58,15.67-93.15,31.33-139.73,47,.02,0,.04,0,.06.01,2.45-.34,63.73-8.84,103.1-25.13,19.98-8.26,48.24-14.72,75.32-16.12,27.39-1.43,53.55,2.3,68.69,14.53h.01c.04-1.43.26-2.98.77-4.52,1.06-3.13,2.48-4.91,3.51-5.89-8.7-4.88-20.79-10.09-34.52-13.46Z"/><path class="cls-8" d="M767.92,416.67s-.08-.02-.13-.04C401.05,253.62,205.92,47.29,197.3,38.05c-.11-.66-.21-1.34-.3-2,0,0,129.99,141.03,570.92,380.63Z"/><path class="cls-32" d="M767.8,416.63c-3.49-1.34-45.22-17.27-104.69-43.26h-.02c-214.98-102.96-386.25-234.98-440.21-278.54l-.02-.02c-13.59-19.11-22.58-38.11-25.56-56.76,8.63,9.24,203.76,215.58,570.5,378.59Z"/><path class="cls-19" d="M663.08,373.37c-135.43-59.15-362.82-170.17-440.21-278.54,53.95,43.56,225.23,175.58,440.21,278.54Z"/><path class="cls-11" d="M553.32,134.52c.05.14.12.28.18.41-.08-.15-.14-.29-.21-.43,0,.01.01.01.02.02Z"/><path class="cls-17" d="M667.11,305.35c-8.75,2.58-15.89,4.62-18.21,5.28-1.55-.81-3.02-1.58-4.41-2.32-18.62-9.82-22.96-12.72-38.25-20.96-7.6-4.09-44.24-19.87-78.09-56.1,13.57,4.66,42.39,21.75,69.48,37.87,2.17,1.47,69.48,36.23,69.48,36.23Z"/><path class="cls-23" d="M648.9,310.63c-.51.13-.79.21-.79.21-31.31,8.73-45.69-3.6-45.69-3.6l-39.06-23.17c-7.48-9.35-37.08-46.11-35.21-52.82,33.85,36.23,70.48,52.01,78.09,56.1,15.29,8.24,19.64,11.14,38.25,20.96,1.38.75,2.85,1.51,4.41,2.32Z"/><path class="cls-33" d="M92.27,465.64h422.87s69.63,4.25,154.85-41.46c0,0-86.46,24.8-165.48,23.39H92.27c-4.99,0-9.04,4.05-9.04,9.04s4.05,9.04,9.04,9.04Z"/><path class="cls-6" d="M460.48,529.27H162.58c-4.99,0-9.04,4.05-9.04,9.04s4.05,9.04,9.04,9.04h308.54s69.63,4.25,154.85-41.46c0,0-86.46,24.8-165.48,23.39Z"/><path class="cls-28" d="M113.68,474.82c-4.99,0-9.04,4.05-9.04,9.04s4.05,9.04,9.04,9.04h278c41.35-.6,147.11,4.64,151.4-17.62l-404.82-.45h-24.58Z"/><path class="cls-10" d="M64.9,556.11c-4.99,0-9.04,4.05-9.04,9.04s4.05,9.04,9.04,9.04h331.39c15.64-.59,138.38-.32,142.5-17.62l-449.31-.45h-24.58Z"/><path class="cls-25" d="M81.26,583.26c-4.99,0-9.04,4.05-9.04,9.04s4.05,9.04,9.04,9.04h258.76c15.64-.59,138.38-.32,142.5-17.62l-376.68-.45h-24.58Z"/><path class="cls-16" d="M548.22,494.21c-30.81,5.55-62.08,8.22-93.38,8.19l-367.88-.33h-24.19c-4.72,0-8.93,3.45-9.38,8.15-.51,5.39,3.71,9.92,8.99,9.92h384.62c15.64-.59,226.29,0,296.69-101.86-45.12,33.96-108.12,60.2-195.47,75.93Z"/><path class="cls-5" d="M637.18,383.68s-299.65-.49-415.95-94.08c57.02,17.25,188.21,54.01,321.04,70.63,46.24,13.04,82.13,22.26,94.91,23.45Z"/><path class="cls-26" d="M605.1,362.52c-5.45-1.26-324.26-75.77-433.23-197.89,57.96,31.91,247.82,133.58,371.06,166.55,35.57,18.13,59.47,30.2,62.18,31.33Z"/><path class="cls-14" d="M625.97,410.54s-179.28,34.51-292.7-22.79c56.51,7.65,185.4,22.88,258.88,13.76,12.99,2.85,24.47,5.86,33.82,9.03Z"/><path class="cls-11" d="M664.07,271.1c-68.82-62.47-98.22-108.79-110.77-136.61,17.85,23.96,75.28,100.12,110.77,136.61Z"/><path class="cls-36" d="M685.97,299.67c-22.66-11.81-44.99-27.6-65.84-44.77-49.23-40.47-90.2-88.57-107.82-110.33-1.1-1.36-2.12-2.64-3.04-3.79l176.7,158.89Z"/><path class="cls-4" d="M509.25,140.74l-.92-.82.9.79s.01.02.02.03Z"/><path class="cls-4" d="M685.98,299.67l-2.11.64-14.19,4.28-2.58.77-69.48-43.2c-2.24-1.38-4.47-2.83-6.65-4.3-12.29-8.22-23.75-17.59-34.29-27.97-4-3.94-7.94-7.92-11.65-12.1-16.32-18.36-37.02-47.65-36.7-77.87l.89.79s.02.04.04.06c.92,1.15,1.94,2.43,3.05,3.79,10.48,24.47,42.56,86.16,107.82,110.33,20.85,17.17,43.18,32.95,65.84,44.77Z"/><path class="cls-2" d="M620.14,254.9c-65.26-24.18-97.34-85.86-107.82-110.33,17.62,21.77,58.6,69.86,107.82,110.33Z"/><path class="cls-12" d="M979.44,367.25c-25.92-30.91-63.11-34.46-76.59-34.66,1.3-1.47,2.56-2.96,3.73-4.47,2.47-3.17,4.54-6.43,6.09-9.76,7.39,1.06,51.29,8.58,66.26,37.62.51,3.51.68,7.26.51,11.27Z"/><path class="cls-34" d="M979.44,367.25c-.02.51-.04,1.02-.09,1.53-50.33-42.41-96.43-16.74-115.79-1.81h-.02c-1.06.32-2.13.64-3.22.98h-.04c-7.48,2.32-15.4,5.07-23.83,8.31,6.94-3.09,45.71-20.77,66.39-43.66,13.48.19,49.68-6.96,76.59,34.66Z"/><path class="cls-1" d="M979.35,368.78c-.23,3.86-.81,7.94-1.75,12.29,0,0-19.75-42.41-114.04-14.1,19.36-14.93,65.45-40.6,115.79,1.81Z"/><path class="cls-18" d="M897.47,311.53c-8.54-5.35-25.01-14.02-45.75-17.21-8.63-1.32-16.57-1.55-23.54-1.24-12.65.6-21.98,3.07-25.94,4.22-22.45,6.5-21.9,14.21-49.03,25.39-8.82,3.62-28.29,10.8-53.91,12.87-20.66,1.68-37.87-.58-49.63-2.94,2.28-.32,63.69-8.82,103.11-25.13,19.98-8.26,48.24-14.72,75.32-16.12,27.39-1.43,53.55,2.3,68.69,14.53h.02c-.09,2.6.4,4.77.66,5.64Z"/></svg>