<svg xmlns="http://www.w3.org/2000/svg" viewBox="0 0 64 64" role="img" aria-label="Bianalytics logo">
  <defs>
    <linearGradient id="g1" x1="10%" y1="0%" x2="90%" y2="100%">
      <stop offset="0%" stop-color="#7ce1ff"/>
      <stop offset="50%" stop-color="#46b6ff"/>
      <stop offset="100%" stop-color="#1f8bff"/>
    </linearGradient>
    <linearGradient id="g2" x1="0%" y1="0%" x2="100%" y2="100%">
      <stop offset="0%" stop-color="#9bf1ff"/>
      <stop offset="100%" stop-color="#2dc4ff"/>
    </linearGradient>
  </defs>
  <circle cx="32" cy="32" r="30" fill="#0a152b"/>
  <path fill="url(#g1)" d="M32 6l5.2 3 .6 6a18.6 18.6 0 0 1 4.5 2.6l5.9-1.7 4 7-4.3 4.3a18.6 18.6 0 0 1 .3 3 18.6 18.6 0 0 1-.3 3l4.3 4.3-4 7-5.9-1.7a18.6 18.6 0 0 1-4.5 2.6l-.6 6-5.2 3-5.2-3-.6-6a18.6 18.6 0 0 1-4.5-2.6L16 46.5l-4-7 4.3-4.3a18.6 18.6 0 0 1 0-6L12 25.3l4-7 5.9 1.7a18.6 18.6 0 0 1 4.5-2.6l.6-6L32 6z"/>
  <path fill="#0a152b" d="M32 19.5a12.5 12.5 0 1 0 0 25 12.5 12.5 0 0 0 0-25z"/>
  <path fill="url(#g2)" d="M29 19c0-2 1.6-3.5 3.5-3.5S36 17 36 19a3.5 3.5 0 0 1-2.8 3.4v6.9a5.5 5.5 0 1 1-3.4 0v-7A3.5 3.5 0 0 1 29 19zm-1.4 17.6a2.4 2.4 0 1 0 4.8 0 2.4 2.4 0 0 0-4.8 0z"/>
</svg>
